<?xml version="1.0" ?><!DOCTYPE svg  PUBLIC '-//W3C//DTD SVG 1.1//EN'  'http://www.w3.org/Graphics/SVG/1.1/DTD/svg11.dtd'><svg enable-background="new 0 0 91 91" height="91px" id="Layer_1" version="1.1" viewBox="0 0 91 91" width="91px" xml:space="preserve" xmlns="http://www.w3.org/2000/svg" xmlns:xlink="http://www.w3.org/1999/xlink"><g><path d="M11.521,88.836c0.737,1.755,2.937,3.382,4.864,1.977c20.955-15.288,43.136-28.826,64.18-44.004   c4.871-3.509-0.097-10.309-4.888-6.928c-3.738-3.136-7.321-6.446-11.377-9.246c-5.182-3.573-10.509-6.934-15.86-10.241   C37.604,13.692,26.368,7.68,15.614,0.835c-2.24-1.428-5.371,0.426-5.306,3.045C10.8,23.209,10.592,86.618,11.521,88.836z    M73.476,41.583C55.548,55.699,36.614,68.539,17.94,81.653c0.004-0.592,0.207-54.608-0.345-71.402   c9.09,5.419,18.347,10.59,27.675,15.565C50.818,28.779,69.651,39.25,73.476,41.583z"/></g></svg>