<?xml version="1.0" ?><!DOCTYPE svg  PUBLIC '-//W3C//DTD SVG 1.1//EN'  'http://www.w3.org/Graphics/SVG/1.1/DTD/svg11.dtd'><svg enable-background="new 0 0 91 91" height="91px" id="Layer_1" version="1.1" viewBox="0 0 91 91" width="91px" xml:space="preserve" xmlns="http://www.w3.org/2000/svg" xmlns:xlink="http://www.w3.org/1999/xlink"><g><path d="M86.67,8.129c-5.456,3.504-11.08,6.745-16.492,10.316c-1.92,1.265-3.786,2.604-5.61,3.999   c-2.238,1.71-4.178,3.771-6.211,5.703c0.117-5.854,0.249-11.709,0.398-17.564c0.055-2.17-2.547-3.714-4.406-2.528   c-8.681,5.542-17.672,10.618-26.282,16.266c-4.044,2.656-8.062,5.352-12.003,8.155c-3.433,2.443-6.465,5.33-9.651,8.035   c-3.923-2.752-8.159,2.805-4.055,5.768C19.398,58.58,36.748,70.457,53.71,82.863c1.599,1.169,3.426-0.187,4.036-1.644   c0.741-1.765,0.26-13.352,0.255-16.747c9.219,6.314,18.778,12.047,27.982,18.391c1.597,1.104,3.45-0.122,4.04-1.642   c0.699-1.801,0.558-54.568,0.92-70.64C90.99,8.481,88.476,6.967,86.67,8.129z M52.703,15.911c-0.458,13.953-0.292,58.72-0.287,59.3   C37.431,64.488,22.652,53.397,8.232,41.933C11.33,40.025,45.434,20.321,52.703,15.911z M58.01,55.987   c0.028-8.327,0.134-16.65,0.291-24.972c2.618-1.674,5.516-3.052,8.121-4.706c2.032-1.292,4.093-2.522,6.212-3.665   c4.186-2.26,8.327-4.547,12.424-6.939c-0.498,13.854-0.507,27.726-0.452,41.592c0.021,5.286,0.164,17.222,0.171,17.904   C76.175,69.026,58.354,56.139,58.01,55.987z"/></g></svg>