<?xml version="1.0" ?><!DOCTYPE svg  PUBLIC '-//W3C//DTD SVG 1.1//EN'  'http://www.w3.org/Graphics/SVG/1.1/DTD/svg11.dtd'><svg enable-background="new 0 0 91 91" height="91px" id="Layer_1" version="1.1" viewBox="0 0 91 91" width="91px" xml:space="preserve" xmlns="http://www.w3.org/2000/svg" xmlns:xlink="http://www.w3.org/1999/xlink"><g><path d="M1.176,81.346c0.592,1.524,2.45,2.753,4.053,1.646c9.228-6.361,18.816-12.109,28.06-18.441   c-0.006,3.309-0.013,6.617,0.002,9.927c0.009,1.914-0.524,5.02,0.251,6.866c0.612,1.462,2.446,2.821,4.047,1.648   c17.008-12.44,34.406-24.353,51.492-36.688c4.055-2.925-0.074-8.586-4.06-5.789c-3.03-2.592-5.917-5.359-9.186-7.696   c-4.111-2.939-8.307-5.76-12.533-8.533c-8.636-5.664-17.649-10.753-26.354-16.311c-1.866-1.189-4.473,0.359-4.417,2.535   c0.147,5.868,0.278,11.734,0.397,17.6c-1.945-1.864-3.805-3.845-5.947-5.49c-1.92-1.477-3.883-2.891-5.906-4.225   c-5.427-3.581-11.065-6.831-16.538-10.347c-1.811-1.163-4.333,0.355-4.286,2.461C0.614,26.627,0.444,79.461,1.176,81.346z    M83.204,41.941C68.738,53.439,53.917,64.563,38.887,75.319c0.006-0.48,0.082-12.118,0.098-17.456   c0.047-13.996,0.074-28.017-0.385-42.008C45.889,20.277,79.932,39.909,83.204,41.941z M32.987,30.998   c0.157,8.346,0.263,16.691,0.291,25.041c-0.344,0.153-18.213,13.078-26.839,19.27c0.007-0.578,0.149-12.545,0.17-17.951   c0.055-13.903,0.045-27.814-0.454-41.709C10.265,18.048,30.272,29.252,32.987,30.998z"/></g></svg>