<?xml version="1.0" ?><!DOCTYPE svg  PUBLIC '-//W3C//DTD SVG 1.1//EN'  'http://www.w3.org/Graphics/SVG/1.1/DTD/svg11.dtd'><svg enable-background="new 0 0 91 91" height="91px" id="Layer_1" version="1.1" viewBox="0 0 91 91" width="91px" xml:space="preserve" xmlns="http://www.w3.org/2000/svg" xmlns:xlink="http://www.w3.org/1999/xlink"><g><path d="M11.459,65.569c2.541,0.028,9.67,0.032,10.591-0.217c7.978,5.607,17.348,8.788,25.219,14.58   c1.852,1.361,4.515-0.479,4.475-2.569c-0.408-20.955-1.334-41.926-0.884-62.889c0.036-1.77-2.051-2.988-3.566-2.045   c-8.054,5.004-16.203,9.817-23.777,15.509c-0.701-0.875-1.776-1.442-3.465-1.47c-5.251-0.09-10.722,0.843-15.975,1.159   c-4.705,0.285-4.577,7.779,0,7.261c0.258-0.028,0.519-0.063,0.777-0.092c-0.36,3.389-0.554,6.801-0.709,10.199   c-0.23,5.084-1.02,10.553-0.603,15.625C3.915,65.174,7.711,65.528,11.459,65.569z M45.886,18.629   c-0.862,17.694,0.055,35.367-0.028,53.068C39.144,67.387,25.313,58.927,25.2,58.852c0.042-2.792,0.059-5.582,0.051-8.373   c-0.017-5.222-0.138-10.445-0.343-15.663c-0.051-1.331-0.068-2.752-0.279-4.04C31.492,26.375,38.736,22.558,45.886,18.629z    M18.43,33.242c0.258,2.45,0.047,5.151,0.123,7.445c0.109,3.263-0.081,17.122,0.187,18.549c-1.386-0.27-9.414,0.096-9.504,0.088   c-0.04-0.699-1.027-20.299-1.497-24.871C9.376,34.259,17.696,33.31,18.43,33.242z"/><path d="M89.568,30.554c0.666-1.103-0.665-2.438-1.768-1.768c-5.641,3.412-10.476,8.761-15.282,13.368   c-4.809-4.609-9.644-9.957-15.283-13.368c-1.104-0.667-2.434,0.665-1.768,1.768c3.378,5.591,8.778,10.318,13.49,14.946   c-4.604,4.313-9.176,8.655-13.619,13.141c-2.458,2.48,1.354,6.294,3.832,3.832c4.476-4.441,8.909-8.922,13.348-13.4   c4.438,4.479,8.871,8.959,13.346,13.4c2.479,2.462,6.29-1.35,3.834-3.832c-4.446-4.486-9.016-8.828-13.62-13.141   C80.792,40.872,86.19,36.145,89.568,30.554z"/></g></svg>