<?xml version="1.0" ?><!DOCTYPE svg  PUBLIC '-//W3C//DTD SVG 1.1//EN'  'http://www.w3.org/Graphics/SVG/1.1/DTD/svg11.dtd'><svg enable-background="new 0 0 91 91" height="91px" id="Layer_1" version="1.1" viewBox="0 0 91 91" width="91px" xml:space="preserve" xmlns="http://www.w3.org/2000/svg" xmlns:xlink="http://www.w3.org/1999/xlink"><g><path d="M89.934,23.87c-0.265-4.267-0.583-8.527-1.003-12.782c-0.308-3.125-0.523-6.162-4.091-6.952   c-3.602-0.801-8.087-0.235-11.769-0.227c-4.515,0.01-9.03-0.017-13.545-0.054c-19.477-0.167-35.869-0.6-55.35-0.392   c-4.403,0.046-5.021,6.015-1.873,7.592c-0.66,11.696,0.508,22.688,0.919,34.328C3.691,58.547,3.733,70.69,3.506,83.86   c-0.03,1.857,1.593,3.411,3.422,3.421c17.528,0.097,31.972,0.199,49.499,0.3c4.356,0.024,8.712,0.034,13.066,0.032   c3.794-0.004,8.249,0.6,11.93-0.595c6.759-2.192,6.801-10.708,7.499-16.49C90.879,54.286,90.939,40.176,89.934,23.87z    M83.474,62.523c-0.38,3.299-0.783,6.599-1.246,9.886c-0.29,2.039-0.312,5.749-1.708,7.419c-1.612,1.923-6.043,1.082-8.236,1.056   c-3.232-0.037-20.336-0.185-26.678-0.221c-12.08-0.069-23.13-0.139-35.206-0.204c0.167-12.242,0.093-23.457-0.353-35.693   c-0.411-11.313-0.793-22.2-3.081-33.419c13.031-0.443,25.039-0.64,38.074-0.809c6.632-0.086,37.085-1.208,38.438-1.074   C84.527,12.191,84.156,56.588,83.474,62.523z"/></g></svg>