<?xml version="1.0" ?><!DOCTYPE svg  PUBLIC '-//W3C//DTD SVG 1.1//EN'  'http://www.w3.org/Graphics/SVG/1.1/DTD/svg11.dtd'><svg enable-background="new 0 0 91 91" height="91px" id="Layer_1" version="1.1" viewBox="0 0 91 91" width="91px" xml:space="preserve" xmlns="http://www.w3.org/2000/svg" xmlns:xlink="http://www.w3.org/1999/xlink"><g><path d="M4.025,33.079c0.282-0.031,0.243,7.27,0.074,10.954c-0.25,5.51-1.105,11.436-0.654,16.933   c0.404,4.934,4.519,5.317,8.58,5.362c2.753,0.031,10.481,0.035,11.479-0.234c8.647,6.077,18.8,9.523,27.329,15.801   c2.006,1.476,4.895-0.519,4.85-2.784c-0.441-22.71-1.446-45.437-0.958-68.155c0.041-1.918-2.223-3.238-3.865-2.216   c-8.727,5.424-17.556,10.639-25.764,16.808c-0.76-0.95-1.926-1.563-3.757-1.593c-5.691-0.098-11.62,0.913-17.313,1.256   C-1.074,25.518-0.935,33.64,4.025,33.079z M49.333,15.457c-0.932,19.176,0.059,38.327-0.031,57.51   c-7.274-4.67-15.243-8.229-22.019-13.654c-0.121-0.096-0.243-0.184-0.366-0.266c0.045-3.025,0.065-6.049,0.055-9.074   c-0.019-5.659-0.149-11.319-0.372-16.974c-0.055-1.442-0.073-2.983-0.302-4.378C33.736,23.851,41.586,19.714,49.333,15.457z    M19.577,31.293c0.284,2.656,0.053,5.583,0.137,8.069c0.117,3.536-0.09,18.555,0.202,20.102c-1.503-0.292-10.204,0.104-10.3,0.096   c-0.045-0.758-1.115-21.999-1.624-26.953C9.77,32.396,18.784,31.367,19.577,31.293z"/><path d="M65.214,69.996c-5.53,2.229-2.352,10.071,3.207,7.607c14.949-6.627,24.813-21.748,21.776-38.201   c-1.354-7.34-5.366-14.036-11.28-18.594c-2.408-1.857-5.031-3.371-7.808-4.606c-1.824-0.811-4.249-2.166-6.26-1.401   c-0.77,0.294-1.108,1.044-0.733,1.802c0.776,1.557,2.595,2.188,4.054,2.975c2.108,1.136,4.148,2.422,5.995,3.953   c4.891,4.047,8.314,9.35,9.454,15.642C86.061,52.645,77.475,65.057,65.214,69.996z"/></g></svg>